# xmcd
#
# Track frame offsets: 
#        150
#        2378
#        14862
#        33023
#        54478
#        70244
#        91413
#        107150
#        123875
#        142917
#        153640
#        166420
#        183476
#        195305
#        211927
#        230235
#        246467
#        270979
#        282418
#        299095
#
# Disc length: 4162 seconds
#
# Revision: 2
# Processed by: cddbd v1.5.2PL0 Copyright (c) Steve Scherf et al.
# Submitted via: ExactAudioCopy v1.3
#
DISCID=23104014
DTITLE=Various Artist - Blue Note Trip: Heat Up - Simmer Down cd2
DYEAR=2011
DGENRE=Jazz
TTITLE0=Cannonball Adderley Sextet - A Few Words From Cannonball
TTITLE1=Brisa Roché - Dans Le Vert De Ses Yeux 
TTITLE2=The Three Sounds - Black Sugar
TTITLE3=Horace Silver - Strange Vibes
TTITLE4=Raul Midón - Never Get Enough
TTITLE5=Lou Blackburn - Song Of Delilah
TTITLE6=Nancy Wilson - I'm In Love
TTITLE7=Willie Bobo - Capers
TTITLE8=Dianne Reeves - Sky Islands
TTITLE9=Machito - Congo Mulence
TTITLE10=Bobby Womack - California Dreamin'
TTITLE11=Cassandra Wilson - VooDoo Reprise
TTITLE12=Bobby McFerrin - Thinkin' About Your Body
TTITLE13=100 % Pure Poison - Windy C
TTITLE14=Donald Byrd - Witch Hunt
TTITLE15=Carmen McRae - Can't Hide Love
TTITLE16=Lou Rawls - Season Of The Witch
TTITLE17=Amos Lee - Give It Up
TTITLE18=Letta Mbulu - Pula Yelta
TTITLE19=Lee Morgan - The Delightful Deggie (Big Band Version)
EXTD=YEAR: 2011
EXTT0=
EXTT1=
EXTT2=
EXTT3=
EXTT4=
EXTT5=
EXTT6=
EXTT7=
EXTT8=
EXTT9=
EXTT10=
EXTT11=
EXTT12=
EXTT13=
EXTT14=
EXTT15=
EXTT16=
EXTT17=
EXTT18=
EXTT19=
PLAYORDER=
